<?xml version="1.0" encoding="UTF-8" standalone="no"?>
<!-- Created with Inkscape (http://www.inkscape.org/) -->

<svg
   width="210mm"
   height="297mm"
   viewBox="0 0 210 297"
   version="1.1"
   id="svg5"
   inkscape:version="1.2.2 (732a01da63, 2022-12-09)"
   sodipodi:docname="Logo.svg"
   xml:space="preserve"
   xmlns:inkscape="http://www.inkscape.org/namespaces/inkscape"
   xmlns:sodipodi="http://sodipodi.sourceforge.net/DTD/sodipodi-0.dtd"
   xmlns="http://www.w3.org/2000/svg"
   xmlns:svg="http://www.w3.org/2000/svg"><sodipodi:namedview
     id="namedview7"
     pagecolor="#ffffff"
     bordercolor="#000000"
     borderopacity="0.25"
     inkscape:showpageshadow="2"
     inkscape:pageopacity="0.0"
     inkscape:pagecheckerboard="0"
     inkscape:deskcolor="#d1d1d1"
     inkscape:document-units="mm"
     showgrid="false"
     inkscape:zoom="0.914906"
     inkscape:cx="-39.348304"
     inkscape:cy="358.50677"
     inkscape:window-width="3440"
     inkscape:window-height="1369"
     inkscape:window-x="-8"
     inkscape:window-y="499"
     inkscape:window-maximized="1"
     inkscape:current-layer="layer1" /><defs
     id="defs2" /><g
     inkscape:label="Layer 1"
     inkscape:groupmode="layer"
     id="layer1"><path
       id="path10257"
       style="fill:#b3b3b3;fill-opacity:1;stroke:#8a8c8b;stroke-width:2.2982;stroke-linejoin:round;stroke-opacity:1"
       inkscape:transform-center-x="0.40802275"
       inkscape:transform-center-y="3.5980324"
       d="m 162.70781,103.91266 c -8.17618,-0.0461 -14.8406,6.39628 -14.88496,14.38891 -0.0166,3.24286 1.0807,6.3976 3.11703,8.95812 0,0 -22.15123,41.19387 -37.50989,58.55493 -9.30137,10.51403 -19.110892,22.42704 -32.426722,26.87096 -10.16295,3.39168 -22.220335,2.59786 -32.105324,-1.53458 -8.029016,-3.35649 -15.710465,-9.71443 -19.20571,-17.68401 -2.942339,-6.70892 -2.773277,-15.19689 1.33e-4,-21.9774 2.454268,-6.00024 8.851102,-16.37512 10.216686,-15.92707 2.321583,0.76169 3.058593,4.95972 3.21808,7.88745 -0.0013,-3.19933 0.222965,-8.841 1.702815,-11.77306 4.393994,-8.70567 21.352399,-19.99858 21.352399,-19.99858 0,0 -15.254298,6.17165 -22.034546,10.78821 -8.820258,6.0056 -15.574995,13.07584 -19.400745,22.1013 -4.0076,9.45447 -5.376365,23.38884 -2.505852,30.70433 4.19611,10.69379 10.316773,17.47126 20.587097,22.6177 11.738777,5.88219 29.438097,7.10668 41.865617,2.86922 19.692162,-6.71448 29.857292,-24.39963 43.275662,-40.29973 6.12894,-7.26242 15.77258,-23.74849 15.77258,-23.74849 l 14.59223,-24.42027 -0.15008,-0.1027 c 1.41134,0.4345 2.88128,0.65979 4.36083,0.6683 8.17525,0.0454 14.83879,-6.39604 14.88374,-14.38778 0.0457,-7.99215 -6.54519,-14.50891 -14.72087,-14.55546 z M 43.127133,163.44997 c 7.29e-4,1.4236 0.04506,2.36727 0.04506,2.36727 0,0 0.02982,-0.99671 -0.04506,-2.36727 z M 162.79892,109.4678 c 4.72612,0.0265 8.5359,3.84264 8.509,8.52292 -0.0265,4.6798 -3.87869,8.45195 -8.60438,8.42544 -4.72569,-0.0265 -8.53528,-3.84191 -8.50904,-8.52172 0.0265,-4.6803 3.87823,-8.45318 8.60442,-8.42664 z"
       sodipodi:nodetypes="cccsssssscscsassssccccccccccccccc"
       inkscape:export-filename="Hook.png"
       inkscape:export-xdpi="96"
       inkscape:export-ydpi="96" /><g
       id="g10432"
       transform="matrix(2.7903401,0,0,2.7903401,-87.543202,-173.72491)"><text
         xml:space="preserve"
         style="font-style:normal;font-variant:normal;font-weight:normal;font-stretch:normal;font-size:22.5778px;font-family:'Permanent Marker';-inkscape-font-specification:'Permanent Marker';letter-spacing:-0.015875px;fill:#f4d35d;fill-opacity:1;stroke:#0d3c68;stroke-width:1;stroke-linecap:round;stroke-linejoin:round;stroke-dasharray:none;stroke-opacity:1"
         x="40.776047"
         y="91.96299"
         id="text117"
         inkscape:export-filename="Logo.png"
         inkscape:export-xdpi="96"
         inkscape:export-ydpi="96"><tspan
           sodipodi:role="line"
           id="tspan115"
           style="font-style:normal;font-variant:normal;font-weight:normal;font-stretch:normal;font-size:22.5778px;font-family:'Permanent Marker';-inkscape-font-specification:'Permanent Marker';letter-spacing:-1.32292px;fill:#f4d35d;fill-opacity:1;stroke:#0d3c68;stroke-width:1;stroke-linecap:round;stroke-linejoin:round;stroke-dasharray:none;stroke-opacity:1"
           x="40.776047"
           y="91.96299">H<tspan
   style="letter-spacing:-1.13771px"
   id="tspan9861">OO</tspan>K</tspan><tspan
           sodipodi:role="line"
           style="font-style:normal;font-variant:normal;font-weight:normal;font-stretch:normal;font-size:22.5778px;font-family:'Permanent Marker';-inkscape-font-specification:'Permanent Marker';fill:#f4d35d;fill-opacity:1;stroke:#0d3c68;stroke-width:1;stroke-linecap:round;stroke-linejoin:round;stroke-dasharray:none;stroke-opacity:1"
           x="40.776047"
           y="120.18524"
           id="tspan119" /></text><text
         xml:space="preserve"
         style="font-style:normal;font-variant:normal;font-weight:normal;font-stretch:normal;font-size:11.2889px;font-family:'Permanent Marker';-inkscape-font-specification:'Permanent Marker';fill:#f4d35d;fill-opacity:1;stroke:#0d3c68;stroke-width:1;stroke-linecap:round;stroke-linejoin:round;stroke-dasharray:none;stroke-opacity:1"
         x="17.85915"
         y="87.272957"
         id="text113"
         transform="rotate(-11.303331)"><tspan
           sodipodi:role="line"
           id="tspan111"
           style="font-style:normal;font-variant:normal;font-weight:normal;font-stretch:normal;font-size:11.2889px;font-family:'Permanent Marker';-inkscape-font-specification:'Permanent Marker';fill:#f4d35d;fill-opacity:1;stroke:#0d3c68;stroke-width:1;stroke-linecap:round;stroke-linejoin:round;stroke-dasharray:none;stroke-opacity:1"
           x="17.85915"
           y="87.272957">OFF THE</tspan></text></g></g></svg>
